<?xml version="1.0" standalone="no"?>
<!DOCTYPE svg PUBLIC "-//W3C//DTD SVG 20010904//EN"
 "http://www.w3.org/TR/2001/REC-SVG-20010904/DTD/svg10.dtd">
<svg version="1.0" xmlns="http://www.w3.org/2000/svg"
 width="1163.000000pt" height="1163.000000pt" viewBox="0 0 1163.000000 1163.000000"
 preserveAspectRatio="xMidYMid meet">
<metadata>
Created by potrace 1.11, written by Peter Selinger 2001-2013
</metadata>
<g transform="translate(0.000000,1163.000000) scale(0.100000,-0.100000)"
fill="#000000" stroke="none">
<path d="M0 5815 l0 -5815 5815 0 5815 0 0 5815 0 5815 -5815 0 -5815 0 0
-5815z m3207 2530 c10 -14 29 -41 43 -59 14 -18 34 -45 45 -61 11 -15 28 -36
38 -47 9 -10 17 -22 17 -28 0 -5 5 -10 10 -10 6 0 10 -4 10 -10 0 -5 7 -18 15
-27 28 -35 265 -354 265 -358 0 -3 8 -13 18 -23 9 -10 49 -63 87 -117 60 -84
105 -143 145 -192 6 -7 10 -17 10 -23 0 -5 4 -10 9 -10 5 0 23 -21 39 -48 17
-26 39 -56 49 -67 10 -11 30 -38 46 -61 15 -22 36 -50 48 -62 11 -12 16 -22
12 -22 -4 0 -3 -4 3 -8 6 -4 52 -63 102 -132 50 -69 95 -129 99 -135 9 -11
102 -136 224 -300 41 -55 77 -102 82 -103 4 -2 5 -8 1 -13 -3 -5 -1 -9 4 -9 5
0 37 -40 72 -90 35 -49 67 -90 71 -90 5 0 9 -5 9 -10 0 -10 40 -69 68 -100 7
-8 47 -62 89 -119 41 -58 80 -109 84 -115 10 -11 188 -253 217 -294 10 -13 27
-36 39 -50 13 -15 23 -30 23 -33 0 -3 12 -19 26 -35 14 -16 50 -65 82 -109 53
-75 341 -464 352 -475 3 -3 20 -27 39 -55 19 -27 44 -62 56 -76 l21 -26 0
1179 c-1 649 1 1181 4 1183 10 6 -2 569 -14 647 -8 47 -32 121 -57 169 -30 60
-134 151 -188 165 -9 2 -48 15 -86 28 -39 14 -88 27 -110 30 -22 2 -42 6 -45
7 -3 1 -9 3 -15 4 -5 2 -12 4 -15 5 -11 4 -47 10 -89 15 -24 2 -46 7 -49 9 -7
7 -8 166 -1 177 9 15 2778 6 2849 -9 30 -6 73 -14 95 -17 22 -2 51 -7 65 -10
14 -3 39 -8 55 -10 138 -17 346 -74 505 -137 284 -113 481 -261 614 -462 74
-111 114 -202 131 -301 2 -11 4 -20 5 -20 1 0 3 -9 4 -20 2 -11 7 -40 11 -65
8 -50 8 -245 -1 -300 -3 -19 -6 -45 -6 -57 -1 -13 -6 -23 -11 -23 -4 0 -5 -5
-2 -10 16 -26 -89 -279 -157 -377 -25 -37 -46 -64 -127 -158 -22 -26 -110
-104 -145 -130 -15 -11 -40 -30 -54 -42 -15 -13 -32 -23 -39 -23 -6 0 -13 -4
-15 -8 -8 -19 -315 -177 -363 -186 -37 -8 -123 -41 -120 -46 3 -4 24 -11 47
-15 24 -4 49 -9 56 -11 6 -2 20 -6 30 -8 9 -3 18 -5 20 -6 1 -2 7 -4 12 -5 6
-1 12 -4 15 -5 7 -4 15 -6 59 -15 22 -4 66 -18 97 -30 32 -13 60 -20 63 -17 3
3 6 0 6 -6 0 -7 7 -12 16 -12 8 0 47 -14 87 -31 40 -17 77 -32 82 -33 22 -4
233 -123 280 -158 6 -5 37 -28 71 -52 65 -48 198 -180 238 -236 14 -19 29 -40
35 -46 17 -21 91 -156 91 -168 0 -6 6 -20 14 -31 13 -21 43 -111 50 -155 3
-14 5 -25 6 -25 7 0 15 -135 14 -250 0 -148 -6 -235 -14 -235 -3 0 -7 -11 -8
-24 -2 -29 -48 -170 -68 -207 -7 -15 -10 -29 -7 -33 4 -3 1 -6 -5 -6 -7 0 -11
-3 -10 -7 4 -13 -73 -130 -130 -201 -29 -36 -85 -94 -125 -129 -79 -70 -225
-173 -244 -173 -7 0 -13 -4 -13 -8 0 -10 -246 -128 -285 -136 -5 -1 -41 -13
-80 -26 -38 -13 -73 -25 -77 -26 -5 -1 -11 -3 -15 -4 -5 -2 -12 -4 -18 -5 -5
-1 -17 -5 -25 -8 -23 -10 -269 -66 -315 -73 -53 -7 -101 -15 -113 -19 -7 -3
-45 -7 -85 -11 -40 -3 -75 -8 -79 -10 -3 -2 -53 -7 -111 -9 -57 -3 -115 -8
-128 -12 -13 -3 -324 -8 -690 -10 l-666 -5 -24 34 c-24 34 -165 214 -184 234
-5 6 -17 22 -25 34 -8 12 -33 45 -56 74 -47 60 -130 166 -307 395 -70 92 -133
173 -140 181 -7 8 -26 33 -42 55 -17 21 -37 47 -45 56 -8 8 -22 26 -30 39 -8
12 -20 28 -25 34 -6 6 -55 68 -108 138 -54 70 -105 135 -113 143 -9 8 -13 15
-10 15 3 0 -2 8 -11 18 -10 11 -49 60 -88 110 -38 51 -73 92 -77 92 -4 0 -8 4
-8 10 0 5 -35 54 -78 107 -43 54 -116 148 -162 208 -45 61 -87 112 -91 113 -5
2 -9 9 -9 16 0 7 -10 22 -23 34 -28 26 -49 52 -43 52 3 0 -5 10 -17 23 -12 12
-33 38 -47 56 -29 39 -244 318 -264 342 -7 9 -49 63 -92 120 -43 57 -81 106
-84 109 -3 3 -25 30 -48 60 -23 30 -57 72 -75 94 -17 21 -34 43 -36 49 -2 7
-10 17 -17 24 -7 8 -36 45 -65 83 -28 39 -56 70 -60 70 -5 0 -9 6 -9 13 0 6
-15 28 -33 48 -17 21 -57 69 -87 109 -84 111 -148 193 -170 218 -11 13 -20 27
-20 31 0 3 -8 14 -17 22 -10 9 -56 66 -103 128 -47 62 -124 163 -173 224 -48
62 -96 123 -106 137 -80 105 -185 240 -206 263 -13 15 -23 27 -20 27 3 0 -3 9
-12 19 -29 32 -42 48 -126 159 -44 59 -87 113 -95 120 -9 6 -13 12 -9 12 7 0
-13 26 -60 78 -13 14 -23 28 -23 32 0 4 -10 18 -23 31 -36 37 -151 192 -153
206 -2 10 58 13 276 13 l279 0 18 -25z m-725 -52 c29 -38 56 -69 60 -71 5 -2
8 -8 8 -13 0 -9 13 -27 67 -88 18 -20 33 -39 33 -42 0 -3 9 -17 20 -30 27 -33
27 -33 100 -129 36 -47 67 -87 71 -90 3 -3 18 -23 34 -45 17 -22 32 -42 35
-45 3 -3 53 -66 110 -140 57 -74 108 -139 112 -145 5 -5 22 -28 39 -50 17 -22
41 -53 54 -70 14 -16 86 -109 160 -205 74 -96 143 -184 153 -195 9 -11 24 -30
32 -42 12 -17 142 -187 185 -241 5 -7 18 -21 28 -30 9 -9 17 -22 17 -28 0 -7
4 -14 8 -16 5 -1 40 -43 78 -93 38 -49 74 -96 81 -103 7 -7 13 -16 13 -20 0
-4 13 -20 28 -37 15 -16 57 -68 92 -115 36 -47 67 -87 71 -90 3 -3 18 -23 34
-45 16 -22 48 -63 70 -91 22 -28 49 -63 60 -78 11 -16 25 -33 30 -40 6 -6 65
-81 130 -166 66 -85 130 -166 142 -180 13 -14 23 -28 23 -32 0 -5 8 -16 18
-26 10 -10 31 -36 47 -57 17 -22 32 -42 35 -45 3 -3 30 -38 60 -77 30 -40 58
-73 62 -73 5 0 8 -6 8 -13 0 -7 10 -23 23 -37 57 -64 135 -168 130 -174 -4 -3
-2 -6 4 -6 5 0 45 -46 89 -102 43 -57 82 -107 86 -113 4 -5 24 -30 44 -55 20
-25 71 -90 113 -145 79 -105 79 -105 111 -144 11 -13 20 -27 20 -30 0 -3 16
-24 35 -46 51 -58 55 -63 55 -75 0 -5 4 -10 8 -10 5 0 39 -40 76 -90 38 -49
77 -100 88 -112 11 -13 34 -43 51 -67 16 -24 37 -52 46 -61 9 -9 23 -26 31
-36 13 -17 126 -164 155 -202 5 -8 20 -25 33 -38 12 -14 22 -28 22 -32 0 -4
13 -20 28 -37 15 -16 70 -86 122 -155 52 -69 100 -131 107 -138 7 -8 11 -18 8
-23 -9 -14 -1152 -12 -1161 3 -11 18 -10 159 1 174 6 7 30 16 55 19 80 11 103
16 204 41 55 14 111 31 126 39 15 8 29 12 31 10 3 -2 15 4 28 14 l24 18 -33
49 c-19 27 -54 76 -79 109 -25 33 -50 64 -54 70 -11 15 -115 156 -135 184 -55
75 -87 117 -96 123 -6 4 -8 8 -3 8 4 0 -4 12 -17 28 -14 15 -50 63 -82 107
-31 44 -61 82 -65 83 -5 2 -9 8 -9 13 0 5 -18 33 -40 62 -56 72 -69 89 -143
192 -36 50 -73 97 -81 106 -9 9 -16 19 -16 22 0 3 -49 72 -110 152 -61 81
-110 150 -110 154 0 4 -13 21 -30 37 -16 16 -30 35 -30 42 0 6 -3 12 -7 12 -5
1 -24 23 -43 51 -30 43 -87 120 -160 219 -11 14 -51 68 -89 120 -39 52 -98
133 -133 180 -144 195 -297 402 -372 505 -81 111 -91 124 -113 150 -7 7 -13
18 -13 24 0 6 -3 11 -7 11 -5 0 -19 17 -33 38 -14 20 -28 39 -31 42 -3 3 -34
46 -69 95 -35 50 -70 97 -77 105 -8 8 -60 78 -116 155 -56 77 -110 149 -119
159 -10 11 -18 23 -18 26 0 4 -8 16 -17 28 -10 11 -26 31 -35 44 -49 67 -171
232 -179 242 -15 18 -106 143 -133 183 -20 29 -26 33 -26 18 -3 -315 2 -3541
5 -3565 18 -146 54 -236 119 -301 44 -44 125 -94 181 -111 88 -27 203 -53 275
-63 19 -3 46 -7 60 -11 14 -3 36 -7 49 -8 35 -3 38 -19 32 -178 -1 -17 -50
-18 -876 -18 l-875 0 3 98 c1 56 6 97 12 97 26 2 116 18 165 30 30 7 69 16 85
19 56 9 178 56 227 87 51 33 105 94 127 144 7 17 17 38 22 47 41 81 43 152 43
2018 0 1577 -3 1915 -19 1940 -2 4 -7 22 -10 40 -11 64 -56 142 -111 196 -30
30 -61 54 -69 54 -8 0 -15 5 -15 10 0 6 -7 10 -15 10 -9 0 -30 7 -47 16 -17 9
-40 18 -52 19 -12 2 -46 10 -76 19 -30 8 -71 17 -90 20 -19 3 -49 9 -67 15
-17 5 -34 7 -37 4 -2 -3 -11 -1 -18 3 -7 5 -17 9 -23 10 -5 0 -15 2 -21 2 -8
1 -12 33 -12 92 l0 90 348 0 348 0 54 -67z"/>
<path d="M7135 8053 c-49 -7 -112 -21 -140 -30 -27 -9 -53 -16 -57 -15 -5 1
-8 -3 -8 -9 0 -5 -4 -7 -10 -4 -5 3 -10 1 -10 -6 0 -7 -3 -10 -6 -6 -4 3 -12
0 -19 -7 -7 -7 -26 -23 -41 -37 -29 -25 -63 -85 -70 -126 -2 -13 -6 -35 -9
-50 -3 -16 -6 -401 -6 -858 l-1 -830 464 0 c254 1 494 4 532 9 351 40 623 178
763 388 43 65 104 205 117 268 3 14 7 36 11 50 15 68 20 138 20 275 0 164 -6
229 -30 325 -3 11 -7 28 -9 39 -8 36 -68 171 -76 171 -4 0 -11 10 -14 23 -6
24 -51 82 -107 138 -45 45 -142 119 -157 119 -5 0 -12 4 -14 8 -5 14 -183 93
-218 97 -3 0 -11 4 -18 9 -7 4 -23 9 -35 11 -12 1 -44 8 -72 15 -143 34 -232
42 -465 44 -145 2 -257 -2 -315 -11z"/>
<path d="M6760 5738 c-4 -365 1 -1633 5 -1663 24 -162 57 -243 129 -316 105
-107 301 -171 561 -185 176 -9 230 -11 238 -6 5 2 55 6 113 7 87 3 178 13 279
30 108 18 249 61 328 101 16 8 33 14 38 14 9 0 128 71 156 93 60 47 142 132
179 183 35 49 95 160 99 184 1 3 11 36 23 74 24 74 27 89 38 181 9 70 9 236 1
315 -4 30 -18 98 -32 150 -14 52 -27 100 -28 106 -2 7 -9 19 -16 28 -7 9 -11
16 -7 16 8 0 -37 89 -72 145 -51 77 -140 180 -196 225 -31 25 -56 48 -56 52 0
5 -6 8 -14 8 -7 0 -19 6 -25 14 -25 30 -229 135 -311 161 -3 1 -50 15 -105 32
-85 27 -124 37 -190 49 -5 1 -12 3 -15 4 -3 1 -16 3 -30 5 -14 2 -38 6 -55 9
-16 3 -55 8 -85 11 -30 4 -68 9 -85 11 -16 2 -218 6 -447 9 l-418 5 0 -52z"/>
</g>
</svg>
